# xmcd CD database file
# Copyright (C) 1993-1998 Ti Kan
#
# Track frame offsets:
#	150
#	19460
#	36177
#	53737
#	67878
#	88901
#	102632
#	120352
#	139979
#	158667
#	177942
#	198172
#	211537
#	229778
#	248322
#
# Disc length: 3493 seconds
#
# Revision: 1
# Processed by: cddbd v1.4b41PL1 Copyright (c) Steve Scherf et al.
# Submitted via: CDValet v3.31 - Copyright (c) 1997 Greg Leichner
#
DISCID=c10da30f
DTITLE=Regular Boys - Right From Wrong
DYEAR=1900
DGENRE=
TTITLE0=Last Night
TTITLE1=Can I Change My Mind
TTITLE2=If You Know It
TTITLE3=Jackie Wilson Said I'm In Heaven
TTITLE4=Express Yourself
TTITLE5=Walking the Dog
TTITLE6=Love Truck
TTITLE7=Shakey Ground
TTITLE8=Surely
TTITLE9=What You Won't Do
TTITLE10=Funky Mama
TTITLE11=End Of The Road
TTITLE12=Can't Get Next To You
TTITLE13=My Imagination
TTITLE14=I Gotch Ya
EXTD=
EXTT0=
EXTT1=
EXTT2=
EXTT3=
EXTT4=
EXTT5=
EXTT6=
EXTT7=
EXTT8=
EXTT9=
EXTT10=
EXTT11=
EXTT12=
EXTT13=
EXTT14=
PLAYORDER=
